<svg width="96" height="96" xmlns="http://www.w3.org/2000/svg" xmlns:xlink="http://www.w3.org/1999/xlink" xml:space="preserve" overflow="hidden"><defs><clipPath id="clip0"><rect x="592" y="312" width="96" height="96"/></clipPath></defs><g clip-path="url(#clip0)" transform="translate(-592 -312)"><path d="M645.73 356.91C645.63 357.28 645.52 357.63 645.41 357.91 645.735 359.681 645.895 361.479 645.89 363.28 645.89 367.66 645.04 372.28 642.89 374.41 642.64 375.35 642.68 375.93 643.33 376 645.33 376.23 646.57 378.43 646.57 378.43 647.38 380.86 648.75 380.13 648.75 380.13 653.26 379.07 652.88 384.59 652.48 385.4 652.08 386.21 652.72 385.96 652.72 385.96 654.99 385.64 653.86 380.7 655.15 379.48 655.911 378.825 656.496 377.99 656.85 377.05 658.85 377.95 659.44 375.35 659.44 375.35 659.44 375.35 661.44 376.29 661.96 373.81 664.32 363.06 650.05 358.14 645.73 356.91Z" fill="#000000" fill-rule="nonzero" fill-opacity="1"/><path d="M633.89 363.31C633.882 361.492 634.047 359.677 634.38 357.89 634.28 357.6 634.18 357.28 634.09 356.95 629.61 358.25 615.67 363.17 618 373.84 618.55 376.32 620.52 375.38 620.52 375.38 620.52 375.38 621.16 377.98 623.11 377.08 623.464 378.02 624.049 378.855 624.81 379.51 626.1 380.73 624.97 385.67 627.24 385.99 627.24 385.99 627.97 386.24 627.48 385.43 626.99 384.62 626.7 379.1 631.21 380.16 631.21 380.16 632.58 380.89 633.39 378.46 633.39 378.46 634.62 376.26 636.63 376.03 637.23 375.97 637.31 375.47 637.13 374.67 634.8 372.62 633.89 367.85 633.89 363.31Z" fill="#000000" fill-rule="nonzero" fill-opacity="1"/><path d="M648.06 334.06C647.543 333.45 646.639 333.349 646 333.83 642.29 336.83 640.64 342.93 639.94 346.98 639.23 342.98 637.59 336.8 633.87 333.83 633.195 333.349 632.259 333.507 631.778 334.181 631.335 334.804 631.43 335.66 632 336.17 635.87 339.27 637.24 348 637.44 351.1 637.44 351.1 637.44 351.1 637.44 351.1 637.054 351.704 636.811 352.388 636.73 353.1 636.625 354.625 636.907 356.153 637.55 357.54 637.121 359.402 636.913 361.309 636.93 363.22 636.93 368.41 638.27 372.62 639.93 372.62 641.59 372.62 642.93 368.41 642.93 363.22 642.945 361.326 642.74 359.437 642.32 357.59 642.975 356.188 643.264 354.644 643.16 353.1 643.084 352.36 642.83 351.65 642.42 351.03L642.42 351.03C642.62 347.93 643.99 339.2 647.86 336.1 648.453 335.579 648.541 334.687 648.06 334.06Z" fill="#000000" fill-rule="nonzero" fill-opacity="1"/><path d="M679.58 342.17C678.92 332.84 654.34 342.25 645.47 350.53 645.929 351.596 646.151 352.75 646.12 353.91 649.35 354.78 659.7 358.07 663.65 365.3 664.163 365.43 664.69 365.497 665.22 365.5 668.62 365.39 671 362.26 671.08 359.26 674.132 358.423 676.01 355.36 675.37 352.26 675.37 352.26 680 349.79 678 345.41 679.094 344.713 679.704 343.461 679.58 342.17ZM668 361.83C667.51 362.52 666.77 362.83 666.34 362.52 665.91 362.21 665.95 361.41 666.44 360.72 666.93 360.03 667.67 359.72 668.1 360.04 668.53 360.36 668.49 361.15 668 361.83ZM672.42 355.24C672.01 355.97 671.31 356.36 670.85 356.1 670.39 355.84 670.34 355.04 670.75 354.31 671.16 353.58 671.86 353.18 672.32 353.44 672.78 353.7 672.83 354.5 672.42 355.24ZM676 348.24C675.74 349.04 675.13 349.56 674.62 349.4 674.11 349.24 673.92 348.46 674.17 347.66 674.42 346.86 675.04 346.34 675.54 346.5 676.04 346.66 676.25 347.43 676 348.23ZM675.88 343.59C675.35 343.59 674.88 342.91 674.88 342.07 674.88 341.23 675.31 340.55 675.88 340.55 676.45 340.55 676.88 341.23 676.88 342.07 676.88 342.91 676.4 343.58 675.88 343.58Z" fill="#000000" fill-rule="nonzero" fill-opacity="1"/><path d="M601.81 345.41C599.81 349.79 604.48 352.22 604.48 352.22 603.84 355.32 605.718 358.383 608.77 359.22 608.85 362.22 611.23 365.35 614.63 365.46 615.159 365.457 615.687 365.39 616.2 365.26 620.15 358.03 630.5 354.74 633.73 353.87 633.708 352.71 633.93 351.559 634.38 350.49 625.51 342.25 600.93 332.84 600.27 342.17 600.142 343.452 600.735 344.7 601.81 345.41ZM611.75 360C612.18 359.69 612.93 360 613.41 360.68 613.89 361.36 613.95 362.17 613.51 362.48 613.07 362.79 612.34 362.48 611.85 361.79 611.36 361.1 611.32 360.35 611.75 360ZM607.53 353.4C607.99 353.14 608.7 353.53 609.11 354.27 609.52 355.01 609.47 355.8 609.01 356.06 608.55 356.32 607.84 355.93 607.43 355.2 607.02 354.47 607.07 353.7 607.53 353.44ZM604.31 346.45C604.81 346.29 605.43 346.81 605.68 347.61 605.93 348.41 605.73 349.19 605.23 349.35 604.73 349.51 604.11 348.99 603.85 348.19 603.59 347.39 603.8 346.65 604.31 346.49ZM603 342.06C603 341.22 603.43 340.54 604 340.54 604.57 340.54 604.95 341.22 604.95 342.06 604.95 342.9 604.53 343.58 604 343.58 603.47 343.58 603 342.9 603 342.06Z" fill="#000000" fill-rule="nonzero" fill-opacity="1"/></g></svg>